<?xml version="1.0" standalone="no"?> 
<!DOCTYPE svg PUBLIC "-//W3C//DTD SVG 1.1//EN" "http://www.w3.org/Graphics/SVG/1.1/DTD/svg11.dtd" >
<svg xmlns="http://www.w3.org/2000/svg">
<defs>
  <font id="iconfont" horiz-adv-x="643">
    <font-face font-family="iconfont"
      units-per-em="500" ascent="500"
      descent="0" />
    <missing-glyph horiz-adv-x="0" />
    <glyph glyph-name="angle-down"
      unicode="&#xE001;"
      horiz-adv-x="321" d="M299.729 294.6430000000001Q299.729 291.016 296.939 288.226L166.917 158.204Q164.127 155.414 160.5 155.414T154.083 158.204L24.061 288.226Q21.271 291.016 21.271 294.6430000000001T24.061 301.06L38.012 315.011Q40.802 317.801 44.429 317.801T50.846 315.011L160.5 205.357L270.1540000000001 315.011Q272.9440000000001 317.801 276.571 317.801T282.988 315.011L296.939 301.06Q299.729 298.27 299.729 294.643z" />
    <glyph glyph-name="angle-left"
      unicode="&#xE002;"
      horiz-adv-x="179" d="M170.6935 348.214Q170.6935 344.587 167.9035 341.7970000000001L58.2495 232.1430000000001L167.9035 122.489Q170.6935 119.699 170.6935 116.0720000000001T167.9035 109.6550000000001L153.9525 95.7040000000001Q151.1625 92.9140000000001 147.5355 92.9140000000001T141.1185 95.7040000000001L11.0965 225.7260000000001Q8.3065 228.5160000000001 8.3065 232.1430000000001T11.0965 238.56L141.1185 368.582Q143.9085 371.372 147.5355 371.372T153.9525 368.582L167.9035 354.631Q170.6935 351.841 170.6935 348.214z" />
    <glyph glyph-name="angle-right"
      unicode="&#xE003;"
      horiz-adv-x="179" d="M170.6935 232.143Q170.6935 228.516 167.9035 225.726L37.8815 95.704Q35.0915 92.914 31.4645 92.914T25.0475 95.704L11.0965 109.655Q8.3065 112.4450000000001 8.3065 116.072T11.0965 122.489L120.7505 232.143L11.0965 341.7970000000001Q8.3065 344.587 8.3065 348.214T11.0965 354.631L25.0475 368.582Q27.8375 371.372 31.4645 371.372T37.8815 368.582L167.9035 238.56Q170.6935 235.7699999999999 170.6935 232.143z" />
    <glyph glyph-name="angle-up"
      unicode="&#xE004;"
      horiz-adv-x="321" d="M299.729 169.643Q299.729 166.016 296.939 163.226L282.988 149.275Q280.198 146.485 276.571 146.485T270.1540000000001 149.275L160.5 258.929L50.846 149.275Q48.056 146.485 44.429 146.485T38.012 149.275L24.061 163.226Q21.271 166.016 21.271 169.643T24.061 176.06L154.083 306.082Q156.873 308.872 160.5 308.872T166.917 306.082L296.939 176.06Q299.729 173.2699999999999 299.729 169.643z" />
    <glyph glyph-name="caret-down"
      unicode="&#xE005;"
      horiz-adv-x="286" d="M285.857 303.5710000000001Q285.857 296.317 280.5560000000001 291.015L155.556 166.015Q150.255 160.714 143 160.714T130.444 166.015L5.444 291.015Q0.143 296.316 0.143 303.5710000000001T5.444 316.127T18 321.428H268Q275.254 321.428 280.5560000000001 316.127T285.857 303.5710000000001z" />
    <glyph glyph-name="caret-left"
      unicode="&#xE006;"
      horiz-adv-x="179" d="M169.857 375V125Q169.857 117.746 164.556 112.444T152 107.143T139.444 112.444L14.444 237.444Q9.143 242.745 9.143 250.0000000000001T14.444 262.5560000000001L139.444 387.5560000000001Q144.745 392.8570000000001 152 392.8570000000001T164.556 387.5560000000001T169.857 375.0000000000001z" />
    <glyph glyph-name="caret-right"
      unicode="&#xE007;"
      horiz-adv-x="179" d="M169.857 250Q169.857 242.746 164.556 237.444L39.556 112.444Q34.255 107.143 27 107.143T14.444 112.444T9.143 125V375Q9.143 382.254 14.444 387.556T27 392.8570000000001T39.556 387.556L164.556 262.556Q169.857 257.255 169.857 250z" />
    <glyph glyph-name="caret-up"
      unicode="&#xE008;"
      horiz-adv-x="286" d="M285.857 160.714Q285.857 153.46 280.5560000000001 148.158T268.0000000000001 142.857H18Q10.746 142.857 5.444 148.158T0.143 160.714T5.444 173.27L130.444 298.27Q135.745 303.5710000000001 143 303.5710000000001T155.5560000000001 298.27L280.5560000000001 173.27Q285.857 167.969 285.857 160.714z" />
    <glyph glyph-name="check-square-o"
      unicode="&#xE009;"
      horiz-adv-x="464" d="M370.6954999999999 241.82V165.315Q370.6954999999999 136.686 350.3664999999999 116.357T301.4085 96.028H101.2445Q72.6154999999999 96.028 52.2865 116.357T31.9575 165.315V365.479Q31.9575 394.108 52.2865 414.4369999999999T101.2445 434.766H301.4085Q316.5655 434.766 329.5565000000001 428.7509999999999Q333.1645 427.067 333.8875 423.218Q334.6095000000001 419.128 331.7215 416.241L319.9325 404.452Q317.5265 402.046 314.3995 402.046Q313.6775 402.046 312.2335 402.527Q306.7005000000001 403.9709999999999 301.4075000000001 403.9709999999999H101.2435Q85.3655 403.9709999999999 74.0575 392.6629999999999T62.7495 365.4769999999999V165.3129999999999Q62.7495 149.435 74.0575 138.127T101.2435 126.819H301.4075000000001Q317.2855 126.819 328.5935 138.127T339.9015 165.3129999999999V226.421Q339.9015 229.548 342.0675 231.7129999999999L357.4645 247.1099999999999Q359.8704999999999 249.5159999999999 362.9975 249.5159999999999Q364.4415 249.5159999999999 365.8845 248.7939999999999Q370.6965 246.8689999999999 370.6965 241.8169999999999zM426.2695 359.4650000000001L230.4365 163.631Q224.6634999999999 157.858 216.7234999999999 157.858T203.0105 163.631L99.5604999999999 267.081Q93.7874999999999 272.854 93.7874999999999 280.794T99.5604999999999 294.507L126.0244999999999 320.971Q131.7975 326.7439999999999 139.7375 326.7439999999999T153.4504999999999 320.971L216.7234999999999 257.698L372.3795 413.354Q378.1525000000001 419.127 386.0925 419.127T399.8055 413.354L426.2695 386.89Q432.0425 381.117 432.0425 373.177T426.2695 359.464z" />
    <glyph glyph-name="check-square"
      unicode="&#xE00A;"
      horiz-adv-x="500" d="M226.8415 137.556L398.1585 308.873Q403.4595 314.174 403.4595 321.429T398.1585 333.985L369.6985000000001 362.4450000000001Q364.3975000000001 367.746 357.1425000000001 367.746T344.5865000000001 362.4450000000001L214.2855000000001 232.144L155.4125000000001 291.017Q150.1115000000001 296.318 142.8565000000001 296.318T130.3005000000001 291.017L101.8405000000001 262.557Q96.5395000000001 257.256 96.5395000000001 250.001T101.8405000000001 237.445L201.7285000000001 137.557Q207.0295000000001 132.256 214.2845000000001 132.256T226.8405000000001 137.557zM464.2855000000001 383.929V116.072Q464.2855000000001 82.869 440.7085000000001 59.292T383.9285000000001 35.715H116.0715Q82.8685 35.715 59.2915 59.292T35.7145 116.072V383.9290000000001Q35.7145 417.1320000000001 59.2915 440.7090000000001T116.0715 464.2860000000001H383.9285000000001Q417.1315000000001 464.2860000000001 440.7085000000001 440.7090000000001T464.2855000000001 383.9290000000001z" />
    <glyph glyph-name="check"
      unicode="&#xE00B;"
      horiz-adv-x="500" d="M466.2395 342.076Q466.2395 330.915 458.4265 323.103L218.4705 83.1470000000001Q210.6575 75.3340000000001 199.4975 75.3340000000001T180.5245 83.1470000000001L41.5735 222.0980000000001Q33.7605 229.9110000000001 33.7605 241.0710000000001T41.5735 260.0440000000001L79.5195 297.9900000000001Q87.3325 305.8030000000001 98.4925 305.8030000000001T117.4655 297.9900000000001L199.4965 215.6800000000001L382.5325000000001 398.9950000000001Q390.3455000000001 406.8080000000001 401.5055000000001 406.8080000000001T420.4785000000001 398.9950000000001L458.4245000000001 361.0490000000001Q466.2375000000001 353.2360000000001 466.2375000000001 342.0760000000001z" />
    <glyph glyph-name="circle-o"
      unicode="&#xE00C;"
      horiz-adv-x="500" d="M250.001 380.876Q214.395 380.876 184.322 363.314T136.687 315.679T119.125 250T136.687 184.321T184.322 136.686T250.001 119.124T315.68 136.686T363.315 184.321T380.877 250.0000000000001T363.315 315.6790000000001T315.68 363.314T250.001 380.8760000000001zM434.767 250Q434.767 199.718 409.987 157.256T342.7440000000001 90.013T250 65.233T157.256 90.0129999999999T90.013 157.2559999999999T65.233 249.9999999999999T90.013 342.7439999999999T157.256 409.9869999999999T250 434.767T342.7440000000001 409.9869999999999T409.987 342.7439999999999T434.767 249.9999999999999z" />
    <glyph glyph-name="clipboard"
      unicode="&#xE00D;"
      horiz-adv-x="500" d="M214.2865 35.714H464.2865V214.285H348.2155000000001Q337.0545000000001 214.285 329.2425 222.098T321.4295000000001 241.071V357.142H214.2865V35.713zM285.7145 437.5V455.357Q285.7145 458.984 283.0635 461.635T276.7855 464.286H80.3565Q76.7295 464.286 74.0785 461.635T71.4275 455.357V437.5Q71.4275 433.873 74.0785 431.222T80.3565 428.5710000000001H276.7855Q280.4125 428.5710000000001 283.0635 431.222T285.7145 437.5zM357.1435 250H440.5695L357.1435 333.426V250zM500.0005 214.286V26.786Q500.0005 15.625 492.1875 7.813T473.2145 0H205.3575Q194.1965 0 186.3845 7.813T178.5715 26.786V71.429H26.7855Q15.6245 71.429 7.8125 79.242T-0.0005 98.215V473.215Q-0.0005 484.376 7.8125 492.188T26.7855 500.001H330.3565Q341.5175 500.001 349.3295 492.188T357.1425 473.215V381.697Q363.0015 378.07 367.1865 373.885L481.0255 260.046Q488.8385 252.233 494.4185 238.84T499.9995 214.286z" />
    <glyph glyph-name="close"
      unicode="&#xE00E;"
      horiz-adv-x="500" d="M395.5080000000001 366.211L279.2970000000001 250L395.5080000000001 133.789L366.2110000000001 104.492L250.0000000000001 220.703L133.789 104.492L104.492 133.789L220.703 250L104.492 366.211L133.789 395.5080000000001L250.0000000000001 279.2970000000001L366.2110000000001 395.5080000000001z" />
    <glyph glyph-name="cross"
      unicode="&#xE00F;"
      horiz-adv-x="500" d="M495.4395 98.311C495.4374999999999 98.313 495.4354999999999 98.315 495.4335 98.316L343.7515000000001 250.001L495.4335 401.686C495.4355 401.688 495.4375000000001 401.689 495.4395000000001 401.691C497.0724999999999 403.325 498.2524999999999 405.233 499.0094999999999 407.265C501.0825 412.82 499.9005000000001 419.317 495.4335 423.784L423.7805 495.437C419.3135 499.903 412.8185 501.0839999999999 407.2625000000001 499.011C405.2315000000001 498.254 403.3225000000001 497.074 401.6875000000001 495.442C401.6875000000001 495.4399999999999 401.6855000000001 495.439 401.6835000000001 495.437L249.9995000000001 343.751L98.3155 495.436C98.3135 495.438 98.3125 495.439 98.3105 495.441C96.6765 497.073 94.7685 498.254 92.7375 499.01C87.1805 501.084 80.6855 499.902 76.2185 495.436L4.5645 423.782C0.0975 419.315 -1.0835 412.819 0.9895 407.264C1.7475 405.233 2.9275 403.323 4.5595 401.69C4.5615 401.689 4.5625 401.687 4.5645 401.685L156.2495 250.001L4.5645 98.3149999999999C4.5635 98.3129999999999 4.5615 98.312 4.5605 98.31C2.9285 96.6759999999999 1.7485 94.768 0.9895 92.737C-1.0845 87.182 0.0975 80.685 4.5645 76.218L76.2185 4.5649999999999C80.6865 0.098 87.1815 -1.0830000000001 92.7375 0.99C94.7685 1.7479999999999 96.6775 2.9279999999999 98.3115 4.5599999999999C98.3125 4.562 98.3145 4.5629999999999 98.3165 4.5649999999999L250.0005000000001 156.25L401.6845000000001 4.5649999999999C401.6865000000001 4.564 401.6885000000001 4.562 401.6905000000001 4.5609999999999C403.3255 2.9279999999999 405.2325 1.7479999999999 407.2635 0.9899999999999C412.8195 -1.0830000000001 419.3165 0.0979999999999 423.7815000000001 4.5649999999999L495.4345000000001 76.2189999999999C499.9014999999999 80.6859999999999 501.0835000000001 87.1829999999999 499.0105 92.7379999999999C498.2525000000001 94.7689999999999 497.0725 96.6769999999999 495.4395000000001 98.3109999999999z" />
    <glyph glyph-name="dot-circle-o"
      unicode="&#xE010;"
      horiz-adv-x="500" d="M316.326 250Q316.326 222.537 296.894 203.105T249.999 183.673T203.104 203.105T183.672 250.0000000000001T203.104 296.8950000000001T249.999 316.327T296.894 296.8950000000001T316.326 250.0000000000001zM250 390.944Q211.655 390.944 179.269 372.031T127.97 320.7320000000001T109.057 250.001T127.97 179.27T179.269 127.971T250 109.058T320.731 127.971T372.0300000000001 179.27T390.943 250.001T372.0300000000001 320.7320000000001T320.731 372.031T250 390.944zM448.979 250Q448.979 195.851 422.293 150.122T349.878 77.707T250 51.021T150.122 77.707T77.707 150.122T51.021 250T77.707 349.878T150.122 422.293T250 448.979T349.878 422.293T422.293 349.878T448.979 250z" />
    <glyph glyph-name="female"
      unicode="&#xE011;"
      horiz-adv-x="357" d="M338.933 339.286Q338.933 277.623 297.778 232.004T196.0759999999999 179.688V107.144H258.576Q262.482 107.144 264.993 104.633T267.504 98.216V80.359Q267.504 76.453 264.993 73.9420000000001T258.576 71.431H196.0759999999999V8.931Q196.0759999999999 5.025 193.565 2.5140000000001T187.148 0.003H169.291Q165.3849999999999 0.003 162.874 2.5140000000001T160.363 8.931V71.431H97.8629999999999Q93.9569999999999 71.431 91.4459999999999 73.9420000000001T88.935 80.359V98.216Q88.935 102.122 91.4459999999999 104.633T97.8629999999999 107.144H160.363V179.688Q118.5099999999999 184.152 84.6099999999999 208.427T32.7129999999999 270.927T18.0649999999999 352.4Q21.1339999999999 389.788 40.5259999999999 421.876T91.3069999999999 474.332T159.8059999999999 498.886Q207.239 504.187 248.8130000000001 483.819T314.6610000000001 424.667T338.9350000000001 339.288zM53.2179999999999 339.286Q53.2179999999999 287.668 89.9089999999999 250.977T178.2179999999999 214.286T266.527 250.977T303.218 339.286T266.527 427.5950000000001T178.2179999999999 464.286T89.9089999999999 427.5950000000001T53.2179999999999 339.286z" />
    <glyph glyph-name="graduation-cap"
      unicode="&#xE012;"
      horiz-adv-x="643" d="M495.0470000000001 266.741L500.0690000000001 178.572Q501.1850000000001 159.32 477.1900000000001 142.858T411.6210000000001 116.77T321.4980000000001 107.144T231.3750000000001 116.77T165.8060000000001 142.858T142.9270000000001 178.572L147.9490000000001 266.741L308.1050000000001 216.239Q314.243 214.286 321.4980000000001 214.286T334.8910000000001 216.239zM642.926 357.1430000000001Q642.926 350.726 636.788 348.4940000000001L324.2880000000001 250.28Q323.1720000000001 250.001 321.498 250.001T318.708 250.28L136.789 307.7580000000001Q124.791 298.271 116.979 276.648T107.492 226.843Q125.07 216.799 125.07 196.43Q125.07 177.178 108.8869999999999 166.575L125.07 45.76Q125.628 41.854 122.838 38.784Q120.327 35.715 116.142 35.715H62.571Q58.386 35.715 55.8749999999999 38.784Q53.0849999999999 41.853 53.6429999999999 45.76L69.826 166.575Q53.6429999999999 177.178 53.6429999999999 196.43Q53.6429999999999 216.798 71.7789999999999 227.401Q74.8479999999999 285.158 99.123 319.477L6.2099999999999 348.495Q0.0719999999999 350.727 0.0719999999999 357.144T6.2099999999999 365.793L318.71 464.007Q319.826 464.286 321.5000000000001 464.286T324.2900000000001 464.007L636.7900000000001 365.793Q642.9280000000001 363.5610000000001 642.9280000000001 357.144z" />
    <glyph glyph-name="icon-content-paste"
      unicode="&#xE013;"
      horiz-adv-x="500" d="M395.8335000000001 452.381H308.6455000000001C300.1035000000001 476.548 277.1875 494.048 249.9995 494.048S199.8955000000001 476.548 191.3535 452.381H104.1665C81.1455 452.381 62.4995 433.735 62.4995 410.714V77.381C62.4995 54.36 81.1455 35.7139999999999 104.1665 35.7139999999999H395.8335C418.8545 35.7139999999999 437.5005 54.36 437.5005 77.381V410.714C437.5005 433.735 418.8545 452.381 395.8335 452.381zM250.0005 452.381C261.4585000000001 452.381 270.8335 443.11 270.8335 431.548S261.4585 410.7150000000001 250.0005 410.7150000000001S229.1675 419.986 229.1675 431.548S238.5425 452.381 250.0005 452.381zM395.8335000000001 77.381H104.1665000000001V410.714H145.8335000000001V348.214H354.1665000000001V410.714H395.8335000000001V77.381z" />
    <glyph glyph-name="info-with-circle"
      unicode="&#xE014;"
      horiz-adv-x="500" d="M250.0125 500.714C117.4375 500.714 9.9875 393.264 9.9875 260.714C9.9875 128.139 117.4375 20.689 250.0125 20.689C382.5375 20.689 490.0125 128.139 490.0125 260.714C490.0125 393.264 382.5375 500.7139999999999 250.0125 500.7139999999999zM272.4125 414.064C295.8125 414.064 302.6875 400.489 302.6875 384.964C302.6875 365.589 287.1875 347.664 260.7125 347.664C238.5625000000001 347.664 228.0125 358.789 228.6624999999999 377.214C228.6624999999999 392.739 241.6374999999999 414.064 272.4124999999999 414.064zM212.4625 116.964C196.4625 116.964 184.7875 126.689 195.9625 169.314L214.2875 244.939C217.4625 257.039 217.9875 261.889 214.2875 261.889C209.5125 261.889 188.7375 253.539 176.4875 245.289L168.5125 258.3640000000001C207.3875 290.839 252.0875 309.889 271.2125 309.889C287.2125 309.889 289.8625 290.9890000000001 281.8875 261.889L260.8875 182.389C257.1625 168.339 258.7625 163.489 262.4875 163.489C267.2875000000001 163.489 282.9875 169.2890000000001 298.4375 181.4640000000001L307.4875 169.3140000000001C269.6625000000001 131.5140000000001 228.4375000000001 116.9640000000001 212.4625 116.9640000000001z" />
    <glyph glyph-name="male"
      unicode="&#xE015;"
      horiz-adv-x="357" d="M196.078 320.312Q256.625 313.616 297.7800000000001 267.996T338.935 160.714Q338.935 114.118 314.661 75.335T248.813 16.183T159.806 1.116Q122.697 5.301 91.307 25.67T40.526 78.126T18.065 147.602Q14.717 190.85 32.713 229.075T84.61 291.575T160.363 320.314V357.145H115.72Q111.814 357.145 109.303 359.656T106.792 366.073V383.93Q106.792 387.836 109.303 390.347T115.72 392.858H160.363V438.896L134.694 413.227Q131.904 410.716 128.277 410.716T122.139 413.227L109.304 426.062Q106.793 428.573 106.793 432.2T109.304 438.617L165.666 494.7Q170.967 500.001 178.222 500.001T190.778 494.7L247.14 438.617Q249.651 435.827 249.651 432.2T247.14 426.062L234.305 413.227Q231.794 410.716 228.167 410.716T221.75 413.227L196.081 438.896V392.858H240.724Q244.63 392.858 247.141 390.347T249.652 383.93V366.073Q249.652 362.167 247.141 359.656T240.724 357.145H196.081V320.314zM178.221 35.714Q229.839 35.714 266.53 72.405T303.221 160.714T266.53 249.023T178.221 285.714T89.912 249.023T53.221 160.714T89.912 72.405T178.221 35.7139999999999z" />
    <glyph glyph-name="map-marker"
      unicode="&#xE016;"
      horiz-adv-x="286" d="M214.427 321.429Q214.427 351.005 193.501 371.9310000000001T142.999 392.8570000000001T92.497 371.9310000000001T71.571 321.429T92.497 270.927T142.999 250.001T193.501 270.927T214.427 321.429zM285.855 321.429Q285.855 291.016 276.647 271.485L175.085 55.525Q170.621 46.317 161.832 41.016T142.999 35.715T124.166 41.016T111.192 55.525L9.351 271.485Q0.143 291.016 0.143 321.429Q0.143 380.581 41.996 422.433T143 464.286T244.004 422.433T285.8570000000001 321.429z" />
    <glyph glyph-name="minus"
      unicode="&#xE017;"
      horiz-adv-x="393" d="M392.9290000000001 294.6430000000001V241.072Q392.9290000000001 229.911 385.1160000000001 222.099T366.1430000000001 214.286H26.857Q15.696 214.286 7.884 222.099T0.071 241.072V294.6430000000001Q0.071 305.804 7.884 313.616T26.857 321.429H366.1430000000001Q377.3040000000001 321.429 385.1160000000001 313.616T392.9290000000001 294.643z" />
    <glyph glyph-name="paper-plane-o"
      unicode="&#xE018;"
      horiz-adv-x="500" d="M492.326 496.931Q501.534 490.235 499.86 479.074L428.4310000000001 50.503Q427.0360000000001 42.412 419.5020000000001 37.947Q415.5960000000001 35.715 410.8530000000001 35.715Q407.7840000000001 35.715 404.1570000000001 37.11L257.115 97.0989999999999L173.968 5.8599999999999Q168.946 0.0009999999999 160.854 0.0009999999999Q156.948 0.0009999999999 154.437 1.1169999999999Q149.136 3.0699999999999 146.066 7.6739999999999T142.997 17.8579999999999V143.9739999999999L11.301 197.8249999999999Q0.977 201.731 0.14 213.1709999999999Q-0.697 224.053 9.069 229.6329999999999L473.355 497.49Q483.121 503.3489999999999 492.328 496.932zM396.901 78.683L458.564 447.824L58.452 217.076L152.202 178.85L392.9940000000001 357.1420000000001L259.6230000000001 134.765z" />
    <glyph glyph-name="paper-plane"
      unicode="&#xE019;"
      horiz-adv-x="500" d="M492.326 496.931Q501.534 490.235 499.86 479.074L428.431 50.503Q427.036 42.412 419.5020000000001 37.947Q415.5960000000001 35.715 410.8530000000001 35.715Q407.784 35.715 404.157 37.11L277.762 88.728L210.24 6.4179999999999Q205.2180000000001 0.001 196.568 0.001Q192.941 0.001 190.43 1.117Q185.1290000000001 3.0699999999999 181.9200000000001 7.674T178.7120000000001 17.858V115.235L419.7830000000001 410.7150000000001L121.5130000000001 152.624L11.3010000000001 197.8250000000001Q0.9770000000001 201.7310000000001 0.1400000000001 213.1710000000001Q-0.4179999999999 224.3320000000001 9.0690000000001 229.6330000000001L473.355 497.4900000000001Q477.54 500.0010000000001 482.284 500.0010000000001Q487.865 500.0010000000001 492.328 496.9320000000001z" />
    <glyph glyph-name="pencil-square"
      unicode="&#xE01A;"
      horiz-adv-x="500" d="M148.4375 190.848L190.8485 148.437L176.3395 133.928H160.7145V160.714H133.9285V176.339zM263.9515 299.665Q267.8575 296.038 263.1145 291.294L181.9205 210.1Q177.1775 205.357 173.5495 209.263Q169.6435 212.89 174.3865 217.634L255.5805 298.828Q260.3235 303.5710000000001 263.9515 299.665zM187.5005 107.143L339.2865 258.929L258.9295 339.286L107.1435 187.5V107.143H187.5005zM357.1434999999999 276.786L382.8125 302.4550000000001Q390.6255 310.2680000000001 390.6255 321.428T382.8125 340.401L340.4015 382.812Q332.5885 390.625 321.4285 390.625T302.4554999999999 382.812L276.7864999999998 357.1430000000001zM464.2855000000001 383.929V116.072Q464.2855000000001 82.869 440.7085000000001 59.292T383.9285000000001 35.715H116.0715Q82.8685 35.715 59.2915 59.292T35.7145 116.072V383.9290000000001Q35.7145 417.1320000000001 59.2915 440.7090000000001T116.0715 464.2860000000001H383.9285000000001Q417.1315000000001 464.2860000000001 440.7085000000001 440.7090000000001T464.2855000000001 383.9290000000001z" />
    <glyph glyph-name="pencil"
      unicode="&#xE01B;"
      horiz-adv-x="500" d="M139.9275 71.429L165.3185 96.82L99.7495 162.389L74.3585 136.998V107.143H110.0725V71.429H139.9275zM285.8535 330.3570000000001Q285.8535 336.495 279.7155 336.495Q276.9255 336.495 274.9725 334.5420000000001L123.7445 183.314Q121.7915 181.361 121.7915 178.571Q121.7915 172.433 127.9295 172.433Q130.7195 172.433 132.6725 174.386L283.9005 325.614Q285.8535 327.567 285.8535 330.3570000000001zM270.7865 383.929L386.8575 267.858L154.7145 35.715H38.6435V151.7860000000001zM461.3555 357.1430000000001Q461.3555 342.355 451.0314999999999 332.031L404.7145000000001 285.714L288.6435 401.7850000000001L334.9605 447.823Q345.0045 458.426 360.0725 458.426Q374.8605 458.426 385.4635 447.823L451.0325 382.533Q461.3565 371.651 461.3565 357.142z" />
    <glyph glyph-name="pie-chart"
      unicode="&#xE01C;"
      horiz-adv-x="500" d="M223.2145 251.674L375.5585 99.33Q345.9825 69.196 306.5015 52.455T223.2145 35.7140000000001Q164.8995 35.7140000000001 115.6525 64.453T37.6675 142.4380000000001T8.9285 250.0000000000001T37.6675 357.5620000000002T115.6525 435.5470000000001T223.2145 464.2860000000001V251.6740000000001zM275.3905 250H491.0715Q491.0715 206.194 474.3305 166.713T427.4555000000002 97.656zM473.2145 285.714H258.9285V500Q317.2435000000001 500 366.4905 471.261T444.4755000000001 393.276T473.2145 285.714z" />
    <glyph glyph-name="plus"
      unicode="&#xE01D;"
      horiz-adv-x="393" d="M392.9285 294.6430000000001V241.072Q392.9285 229.911 385.1155 222.099T366.1425 214.286H250.0715V98.215Q250.0715 87.054 242.2585 79.242T223.2855 71.429H169.7145Q158.5535 71.429 150.7415 79.242T142.9285 98.215V214.2860000000001H26.8575Q15.6965 214.2860000000001 7.8845 222.0990000000001T0.0715 241.0720000000001V294.6430000000001Q0.0715 305.8040000000001 7.8845 313.6160000000001T26.8575 321.4290000000001H142.9285V437.5Q142.9285 448.6610000000001 150.7415 456.473T169.7145 464.2860000000001H223.2855Q234.4465 464.2860000000001 242.2585 456.473T250.0715 437.5V321.4290000000001H366.1425Q377.3035 321.4290000000001 385.1155 313.6160000000001T392.9285 294.6430000000001z" />
    <glyph glyph-name="search"
      unicode="&#xE01E;"
      horiz-adv-x="464" d="M308.9855 265.397Q308.9855 309.904 277.3485 341.541T201.2045 373.178T125.0605 341.541T93.4235 265.397T125.0605 189.253T201.2045 157.616T277.3485 189.253T308.9855 265.397zM432.1635 65.233Q432.1635 52.723 423.0215 43.581T401.3695000000001 34.439Q388.3785000000001 34.439 379.7175000000001 43.581L297.1975000000001 125.86Q254.1335000000001 96.028 201.2055000000001 96.028Q166.8025000000001 96.028 135.4065 109.38T81.2765 145.467T45.1895 199.597T31.8365 265.396T45.1895 331.195T81.2765 385.325T135.4065 421.412T201.2055000000001 434.765T267.0045 421.412T321.1345 385.325T357.2215 331.195T370.5735 265.396Q370.5735 212.468 340.7415 169.404L423.2615 86.884Q432.1635 77.982 432.1635 65.232z" />
    <glyph glyph-name="shield"
      unicode="&#xE01F;"
      horiz-adv-x="357" d="M303.4985000000001 232.143V410.714H178.4985V93.471Q211.7015 111.049 237.9295 131.697Q303.4985000000001 183.036 303.4985000000001 232.1430000000001zM357.0705 446.429V232.1430000000001Q357.0705 208.1470000000001 347.7235 184.5700000000001T324.5645 142.7170000000001T291.6405000000001 107.1420000000001T256.3445000000001 78.4030000000001T222.5835 56.7790000000001T197.6115 42.967T185.7535 37.386Q182.4055 35.712 178.4995 35.712T171.2455000000001 37.386Q166.7815000000001 39.339 159.3875 42.967T134.4155 56.7790000000001T100.6545 78.4030000000001T65.3585 107.1420000000001T32.4345 142.7170000000001T9.2755 184.5700000000001T-0.0715 232.1430000000001V446.4290000000001Q-0.0715 453.683 5.2295 458.985T17.7855 464.2860000000001H339.2145000000001Q346.4685000000001 464.2860000000001 351.7705000000001 458.985T357.0715 446.4290000000001z" />
    <glyph glyph-name="shield2"
      unicode="&#xE020;"
      horiz-adv-x="500" d="M440.1 427.415C324.75 410.7150000000001 301.875 439.89 250.0000000000001 485.715C198.125 439.89 175.25 410.7150000000001 59.9 427.415C-1.575 121.215 250.0000000000001 35.715 250.0000000000001 35.715S501.575 121.215 440.1 427.415zM311.825 177.989L250 210.489L188.2 177.989L200 246.814L150 295.564L219.1 305.589L250 368.214L280.9 305.589L350 295.564L300 246.839L311.825 177.989z" />
    <glyph glyph-name="square-o"
      unicode="&#xE021;"
      horiz-adv-x="393" d="M312.5715 428.5710000000001H80.4285Q62.0135 428.5710000000001 48.8995 415.457T35.7855 383.928V151.785Q35.7855 133.37 48.8995 120.256T80.4285 107.142H312.5715Q330.9865 107.142 344.1005 120.256T357.2145 151.785V383.928Q357.2145 402.343 344.1005 415.457T312.5715 428.5710000000001zM392.9285000000001 383.929V151.786Q392.9285000000001 118.583 369.3515000000001 95.006T312.5715 71.429H80.4285Q47.2255 71.429 23.6485 95.006T0.0715 151.786V383.929Q0.0715 417.132 23.6485 440.709T80.4285 464.2859999999999H312.5715Q345.7745 464.2859999999999 369.3515 440.709T392.9285 383.929z" />
    <glyph glyph-name="star-o"
      unicode="&#xE022;"
      horiz-adv-x="464" d="M317.1005 219.866L402.4795000000001 302.734L284.7335000000001 320.033L231.9995 426.618L179.2655 320.033L61.5195 302.734L146.8985 219.866L126.5305 102.4L231.9995 157.924L337.1895 102.4zM464.1435 319.476Q464.1435 313.338 456.8895 306.0830000000001L355.6055 207.311L379.6015000000001 67.802Q379.8805000000001 65.8490000000001 379.8805000000001 62.221Q379.8805000000001 48.27 368.4405000000001 48.27Q363.1395 48.27 357.2795000000001 51.618L232.0005 117.466L106.7215 51.618Q100.5835 48.27 95.5605 48.27Q89.7015 48.27 86.7715 52.316T83.8415 62.221Q83.8415 63.8949999999999 84.3995 67.802L108.3955 207.3109999999999L6.8325 306.0829999999999Q-0.1435 313.6169999999999 -0.1435 319.4759999999999Q-0.1435 329.8 15.4815 332.3109999999999L155.5485 352.6789999999999L218.3275 479.6319999999999Q223.6285 491.0719999999999 231.9995 491.0719999999999T245.6715 479.6319999999999L308.4505000000001 352.6789999999999L448.5175000000001 332.3109999999999Q464.1425 329.8 464.1425 319.4759999999999z" />
    <glyph glyph-name="star"
      unicode="&#xE023;"
      horiz-adv-x="464" d="M464.1435 319.476Q464.1435 313.338 456.8895 306.0830000000001L355.6055 207.311L379.6015000000001 67.802Q379.8805000000001 65.8490000000001 379.8805000000001 62.221Q379.8805000000001 56.362 376.9505000000001 52.316T368.4405000000001 48.27Q363.1395 48.27 357.2795000000001 51.6180000000001L232.0005 117.4660000000001L106.7215 51.6180000000001Q100.5835 48.27 95.5605 48.27Q89.7015 48.27 86.7715 52.316T83.8415 62.221Q83.8415 63.895 84.3995 67.802L108.3955 207.311L6.8325 306.0830000000001Q-0.1435 313.617 -0.1435 319.476Q-0.1435 329.8000000000002 15.4815 332.3110000000001L155.5485 352.6790000000001L218.3275 479.6320000000001Q223.6285 491.0720000000001 231.9995 491.0720000000001T245.6715 479.6320000000001L308.4505000000001 352.6790000000001L448.5175000000001 332.3110000000001Q464.1425 329.8000000000002 464.1425 319.476z" />
    <glyph glyph-name="users"
      unicode="&#xE024;"
      horiz-adv-x="563" d="M375.2495 128.189V153.96C409.6725 173.3580000000001 437.7495 221.72 437.7495 270.0890000000001C437.7495 347.7540000000001 437.7495 410.7140000000001 343.9995 410.7140000000001S250.2495 347.754 250.2495 270.0890000000001C250.2495 221.72 278.3265 173.359 312.7495 153.96V128.189C206.7425 119.523 125.2495 67.437 125.2495 4.4640000000001H562.7495C562.7495 67.4370000000001 481.2565 119.523 375.2495 128.1890000000001zM160.0135 116.121C187.0205 133.772 220.5995 147.193 257.5665 155.386C250.2155 164.07 243.5485 173.756 237.7955 184.204C222.9445 211.174 215.0945 240.873 215.0945 270.0899999999999C215.0945 312.103 215.0945 351.784 230.0355 384.2320000000001C244.5405 415.728 270.6255 435.255 307.7805 442.576C299.5215 479.92 277.5365000000001 504.466 219.0005 504.466C125.2505 504.466 125.2505 441.506 125.2505 363.841C125.2505 315.472 153.3275 267.111 187.7505 247.712V221.9409999999999C81.7435 213.2749999999999 0.2505 161.1889999999999 0.2505 98.2159999999999H136.4835C143.5725 104.5199999999999 151.4225 110.5069999999999 160.0135 116.1219999999999z" />
    <glyph glyph-name="warning"
      unicode="&#xE025;"
      horiz-adv-x="500" d="M285.7135 116.351V169.364Q285.7135 173.27 283.0625 175.921T276.7845000000001 178.572H223.2135Q219.5865 178.572 216.9355 175.921T214.2845 169.364V116.351Q214.2845 112.445 216.9355 109.794T223.2135 107.143H276.7845000000001Q280.4115 107.143 283.0625 109.794T285.7135 116.351zM285.1555 220.703L290.1775 348.772Q290.1775 352.12 287.3875 354.073Q283.7605000000001 357.142 280.6915 357.142H219.3074999999999Q216.2385 357.142 212.6115 354.073Q209.8215 352.12 209.8215 348.214L214.5645 220.703Q214.5645 217.913 217.3544999999999 216.099T224.0504999999999 214.286H275.6685Q279.5745 214.286 282.2255 216.099T285.1555 220.703zM281.2495 481.306L495.5355 88.449Q505.3015 70.871 494.9775 53.293Q490.2345 45.2019999999999 482.0035 40.458T464.2855 35.715H35.7145Q26.2275 35.715 17.9965 40.458T5.0225 53.293Q-5.3015 70.8709999999999 4.4645 88.449L218.7505 481.306Q223.4935 489.955 231.8645 494.978T250.0005 500T268.1365 494.978T281.2505 481.306z" />
  </font>
</defs>
</svg>
